# xmcd CD database file generated by OrangeCD 5.2
#
# Track frame offsets:
#	182
#	9945
#	23670
#	40677
#	51632
#	67845
#	80595
#	99345
#	112420
#	132932
#	144932
#	155820
#
# Disc length: 2386 seconds
#
# Revision: 4
# Processed by: cddbd v1.5.1PL0 Copyright (c) Steve Scherf et al.
# Submitted via: OrangeCD 5.2
#
DISCID=9b09500c
DTITLE=The Kentucky Headhunters - Rave On
DYEAR=1993
DGENRE=Country
TTITLE0=Dixiefried
TTITLE1=Just Ask Fo' Lucy
TTITLE2=Honky Tonk Walkin'
TTITLE3=Redneck Girl
TTITLE4=Dizzie Miss Daisy
TTITLE5=Celina Tennessee
TTITLE6=The Ghost Of Hank Williams
TTITLE7=Freedom Stomp
TTITLE8=Muddy Water
TTITLE9=My Gal
TTITLE10=Blue Moon Of Kentucky
TTITLE11=Underground
EXTD=
EXTT0=
EXTT1=
EXTT2=
EXTT3=
EXTT4=
EXTT5=
EXTT6=
EXTT7=
EXTT8=
EXTT9=
EXTT10=
EXTT11=
PLAYORDER=
